<?xml version="1.0" encoding="UTF-8"?>
<svg id="Layer_1" xmlns="http://www.w3.org/2000/svg" version="1.1" viewBox="0 0 1920 1080">
  <!-- Generator: Adobe Illustrator 29.3.0, SVG Export Plug-In . SVG Version: 2.1.0 Build 146)  -->
  <defs>
    <style>
      .st0 {
        fill: #0d1012;
      }
    </style>
  </defs>
  <path class="st0" d="M769.42,471v109.05h-76.68v-109.05h-30.66l.03,112.45c0,14.11,11.44,25.55,25.55,25.55h86.87c14.11,0,25.55-11.44,25.55-25.55v-112.45h-30.67Z"/>
  <path class="st0" d="M1082.27,525.48h-81.78v-25.51h103.65v-28.96h-108.76c-14.12,0-25.56,11.44-25.56,25.56v32.33c0,14.12,11.44,25.56,25.56,25.56h81.78v25.6h-103.72v28.96h108.83c14.12,0,25.56-11.44,25.56-25.56v-32.41c0-14.12-11.44-25.56-25.56-25.56Z"/>
  <path class="st0" d="M1386.74,525.48h-81.78v-25.51h103.65v-28.96h-108.76c-14.11,0-25.55,11.44-25.55,25.56v32.33c0,14.12,11.44,25.56,25.55,25.56h81.78v25.6h-103.72v28.96h108.83c14.12,0,25.56-11.44,25.56-25.56v-32.41c0-14.12-11.44-25.56-25.56-25.56Z"/>
  <path class="st0" d="M645.7,525.56h-107.34v-25.56h107.32v-28.96l-137.97-.04v138h30.66v-54.48h107.34v-28.96Z"/>
  <path class="st0" d="M955.45,512.76c0-23.04-18.67-41.72-41.71-41.73l-65.62-.02h-30.67v137.99h30.67v-54.52h62.09c7.05,0,12.78,5.72,12.78,12.78v41.74h30.67v-41.21c0-9.82-5.54-18.34-13.66-22.62,9.43-7.65,15.46-19.33,15.46-32.41ZM912.05,525.52h-63.93v-25.56h63.93c7.05,0,12.78,5.72,12.78,12.78s-5.73,12.78-12.78,12.78Z"/>
  <path class="st0" d="M1259.03,471h-30.66v54.5h-76.68v-54.5h-30.66v57.91c0,14.11,11.44,25.55,25.56,25.55h81.79v25.59h-103.66v28.95h108.75c14.12,0,25.56-11.44,25.56-25.55l.02-112.45h-.02Z"/>
</svg>
